<svg xmlns="http://www.w3.org/2000/svg" viewBox="0 0 143.8 46.9">
  <path class="logoSlqFillColour" d="M57.4 23v.3c0 1.1.3 1.7 1.5 1.7.7 0 1.3-.4 1.3-1.4s-.5-1.4-2-1.9c-2-.7-2.9-1.5-2.9-3.4 0-2.2 1.3-3.3 3.5-3.3 2 0 3.5.9 3.5 3v.3H60c0-1-.4-1.7-1.2-1.7-1 0-1.3.6-1.3 1.3 0 .7.2 1.1 1.2 1.5l1.7.8c1.7.7 2.1 1.6 2.1 3 0 2.4-1.4 3.4-3.9 3.4-2.6 0-3.6-1.2-3.6-3.3V23h2.4zm7-7.4V18h-1.1v1.5h1.1v4.8c0 1.7.3 2.2 2 2.2l1.4-.1V25h-.5c-.6 0-.8-.3-.8-.9v-4.6h1.3V18h-1.3v-2.4h-2.1zm8.3 6.7V24c0 .9-.7 1.3-1.3 1.3-.6 0-.8-.5-.8-1.2 0-.8.3-1.2 1.2-1.4l.9-.4m-3.9-1.7h1.9v-.2c0-.7.3-1.1 1-1.1s1 .4 1 1-.2.8-.9 1l-1.2.3c-1.5.4-2.1 1.1-2.1 2.6 0 1.1.5 2.4 2 2.4 1 0 1.7-.2 2.1-1.1l.3.9H75c-.2-.5-.3-.8-.3-1.6v-4.4c0-1.5-.5-2.6-3.1-2.6-1.6 0-3 .7-3 2.6v.2h.2zm8.1-5V18h-1.1v1.5h1.1v4.8c0 1.7.3 2.2 2 2.2l1.4-.1V25h-.5c-.6 0-.8-.3-.8-.9v-4.6h1.3V18H79v-2.4h-2.1zm8.4 5.7h-2.2V21c0-.8.2-1.7 1.1-1.7.9 0 1.1.7 1.1 2m-2.2 1.3h4.3v-.5c0-2.6-.6-4.3-3.1-4.3-2.9 0-3.4 2.1-3.4 4.4 0 2.1.1 4.5 3.3 4.5 2 0 3-1.1 3.1-3.1h-1.9c-.1 1-.4 1.6-1.1 1.6-.8 0-1.1-1-1.1-2v-.6h-.1zm8.1 3.9h6.3v-1.8h-4v-9.3h-2.3v11.1zm7.3 0h2.2v-8.4h-2.2v8.4zm0-9.5h2.2v-1.8h-2.2V17zm7.1 8c-1 0-1.1-.9-1.1-2.8 0-1.8.2-2.8 1.1-2.8s1.1.9 1.1 2.8-.2 2.8-1.1 2.8m-3.4-9.7v11.2h2.1v-.9c.5.8 1.1 1.1 1.9 1.1 1.8 0 2.6-1.3 2.6-4.4s-.8-4.4-2.6-4.4c-.8 0-1.4.3-1.8 1v-3.5h-2.2v-.1zm8 2.8v8.4h2.2v-5.1c0-1.1.8-1.5 1.6-1.5h.7v-2.1h-.4c-.9 0-1.5.5-1.9 1.3V18h-2.2v.1zm9.3 4.2V24c0 .9-.7 1.3-1.3 1.3-.6 0-.8-.5-.8-1.2 0-.8.3-1.2 1.2-1.4l.9-.4m-4-1.7h1.9v-.2c0-.7.3-1.1 1-1.1s1 .4 1 1-.2.8-.9 1l-1.2.3c-1.5.4-2.1 1.1-2.1 2.6 0 1.1.5 2.4 2 2.4 1 0 1.6-.2 2.1-1.1l.3.9h2.1c-.2-.5-.3-.8-.3-1.6v-4.4c0-1.5-.5-2.6-3.1-2.6-1.6 0-3 .7-3 2.6v.2h.2zm7.7-2.5v8.4h2.2v-5.1c0-1.1.8-1.5 1.6-1.5h.7v-2.1h-.4c-.9 0-1.5.5-1.9 1.3V18h-2.2v.1zm5.7 9.5v1.6h.9c2 0 2.5-.4 3.2-3.3l2-7.9h-2.2l-1.1 5.8-1.3-5.8h-2.3l2.4 8.4c-.1.8-.4 1.2-1.2 1.2 0 .1-.2.1-.4 0M58.4 41.3c-1.1 0-1.2-1.2-1.2-3 0-1.7.1-3 1.2-3 .9 0 1.2.9 1.2 3s-.3 3-1.2 3m0-7.4c-2.5 0-3.3 1.6-3.3 4.4 0 2.9.7 4.5 3.3 4.4 2.5 0 3.3-1.6 3.3-4.4.1-2.9-.7-4.5-3.3-4.4m5.2 1.7v7h2.2v-7H67v-1.5h-1.3v-.7c0-.5.2-.7.8-.7h.4v-1.5h-1.2c-1.4 0-2.3.5-2.3 2v1h-1.1v1.5l1.3-.1zm10.9 5.5c-1.3 0-1.6-1.1-1.6-4.2 0-3 .2-4.2 1.6-4.2 1.3 0 1.6 1.2 1.6 4.2-.1 3-.3 4.2-1.6 4.2m2.8 2.8l1.3-1.2-1.2-1.2c.7-1.1.9-2.7.9-4.5 0-3.4-.4-5.8-3.8-5.8s-3.8 2.4-3.8 5.8.4 5.8 3.8 5.8h.8l.7-.2 1.3 1.3zm6.8-2.3v1h2.1v-8.4H84v5.6c0 .9-.4 1.4-1.1 1.4-.6 0-.9-.3-.9-1.2v-5.8h-2.2v6.3c0 1.7.8 2.4 2.1 2.4.9-.1 1.7-.5 2.2-1.3zm7.8-4.2h-2.2V37c0-.8.3-1.7 1.1-1.7.9.1 1.1.8 1.1 2.1m-2.2 1.2H94v-.5c0-2.6-.6-4.3-3.1-4.3-2.9 0-3.4 2.1-3.4 4.4 0 2.1.1 4.5 3.3 4.5 2 0 3-1.1 3.1-3.1H92c-.1 1-.4 1.6-1.1 1.6-.8 0-1.1-1-1.1-2v-.6h-.1zm9.7-1.2h-2.2V37c0-.8.3-1.7 1.1-1.7.9.1 1.1.8 1.1 2.1m-2.2 1.2h4.3v-.5c0-2.6-.6-4.3-3.1-4.3-2.9 0-3.4 2.1-3.4 4.4 0 2.1.1 4.5 3.3 4.5 2 0 3-1.1 3.1-3.1h-1.9c-.1 1-.4 1.6-1.1 1.6-.8 0-1.1-1-1.1-2v-.6h-.1zm5.7-4.5v8.4h2.2v-5.6c0-.9.4-1.4 1.1-1.4.6 0 .9.3.9 1.2v5.8h2.2v-6.3c0-1.7-.8-2.4-2.1-2.4-.9 0-1.7.4-2.1 1.2v-1l-2.2.1zm9.6 5.7h-1.9v.3c0 1.6.7 2.7 3.1 2.7 1.8 0 3.1-.9 3.1-2.7 0-1.3-.5-2-1.9-2.4l-1.3-.4c-.7-.2-.9-.6-.9-1 0-.6.5-.9 1-.9.7 0 1 .4 1 1.3h1.9v-.3c0-1.5-.9-2.4-2.9-2.4-2.2 0-3.1 1.1-3.1 2.5 0 1.2.6 1.9 1.8 2.3l1.5.5c.4.2.8.4.8 1 0 .7-.4 1-1.1 1s-1.1-.5-1.1-1.2v-.3zm5.6 2.7h2.2V31.3h-2.2v11.2zm7.7-4.2V40c0 .9-.8 1.3-1.3 1.3-.6 0-.8-.5-.8-1.2s.3-1.2 1.2-1.4l.9-.4m-3.9-1.6h1.9v-.2c0-.7.3-1.1 1-1.1s1 .4 1 1-.2.8-.9 1l-1.2.3c-1.5.4-2.1 1-2.1 2.6 0 1.1.5 2.4 2 2.4 1 0 1.6-.2 2.1-1.1l.3.9h2.1c-.2-.5-.3-.8-.3-1.6v-4.4c0-1.5-.5-2.6-3.1-2.6-1.6 0-3 .7-3 2.6v.2h.2zm7.6-2.6v8.4h2.2v-5.6c0-.9.4-1.4 1.1-1.4.6 0 .9.3.9 1.2v5.8h2.2v-6.3c0-1.7-.8-2.4-2.1-2.4-.9 0-1.7.4-2.1 1.2v-1l-2.2.1zm11 7c-.9 0-1.1-.9-1.1-2.8 0-1.8.2-2.8 1.1-2.8 1 0 1.1.9 1.1 2.8s-.2 2.8-1.1 2.8m1.2.5v.9h2.1V31.3h-2.2v3.5c-.5-.7-1-1-1.8-1-1.8 0-2.6 1.3-2.6 4.4 0 3.1.8 4.4 2.6 4.4.8.2 1.4-.2 1.9-1zM33.8 31.4v-3.6h-4.1V15.1h-4.1v16.3h8.2zm-9.7-3.8v-2.4c-.3-1.5-1.2-2.3-2.3-2.9l-1.8-.8-.9-.4-.9-.4c-.3-.1-.5-.3-.7-.6-.1-.3-.2-.7-.1-1.2.1-.4.2-.6.6-.7.3-.1.8-.2 1.1 0 .7.2.6 1.1.6 2h4c0-.9 0-1.8-.3-2.5a3.9 3.9 0 0 0-2.8-2.6 9 9 0 0 0-2.9-.3c-2.2.2-3.6 1.2-4.3 2.9-.2.5-.3 1-.3 1.6l.1 1.8c.2 1 .7 1.8 1.4 2.4s1.6 1 2.5 1.3l1.4.5c.4.2.9.4 1.1.8s.3 1.2 0 1.6c-.2.4-.6.7-1.3.6-.6 0-1-.2-1.2-.7-.2-.4-.2-1.1-.2-1.7H13c0 .9 0 1.7.2 2.4.5 2.1 2.1 3.1 4.5 3.3.9.1 1.7 0 2.4-.1 2.2-.4 3.6-1.7 4-3.9m19.6 6.2l5.2 12.5-13.2-3.8A23.1 23.1 0 1 1 20.6.1a23.2 23.2 0 0 1 23.1 33.7" fill="#ffffff" />
</svg>
