<svg xmlns="http://www.w3.org/2000/svg" viewBox="0 0 143.8 46.9">
  <path d="M50.1 17.8c-.1.6-.6 1.2-1.3 1.6l.8-.1c-.1.4-.6 1.3-1.9 1.7l.6.6-1.5.3.4.9h-1.1l.3.7h-1l.1.7-.7.1c0 .7-.5 1.1-1 1.1-.5.5-1.4 1.3-2.4 1.6.7.9 1.3 2 1.5 3.1a6 6 0 0 1 1.4 3l-.5.4c-.6.4-1.4.6-2.3.6l-.2-.6-.2-.8c-.2-.6-.7-.2-1-1.5-.4.1-1-.1-1.2-.3 0 1 .2 1.9.4 2.6l.2.8c.2.7.2 1 .1 1.4l-.3 4.3c1.4.2 1 1.2 1 1.6-.3-.2-3-.6-3.8 1.4-.7-.2-.9-.7-.8-1.4-.3-.2-.8-.3-1.2.1-.2-1 .5-2.3 3.2-1.5.2-1.9.3-5.2.2-6.1l-.2-.6-1-2-1 2-.6 1.6c-.1.4-1.3.4-1.5 0l-.6-1.6-.9-2.6c-.5.5-1.5.2-1.6-.8.8 0 1.1-.9 1.1-2 0-.9-.2-1.8-.9-1.8.5-.7 1.2-.8 1.6-.5.4.4 1.1 1.3.7 3.4l1.3 3.9a8 8 0 0 0 .5-4.2 7 7 0 0 1-1.6-3.7c-.6-.2-1.4-3.4 1.1-4.7l3.1-1.7c.8-.6 0-1-.4-1.2l-3 .5-1-.1a3 3 0 0 1 1.4-.6l1.9-.6c.2-.5 1.2-1.6 2.5-1.5.9 0 1.7.5 1.8 1.8 0 1.2-.5 1.9-1.9 2.7-1.3.8-2.9 1.9-2.6 3.1.9-.1 1.5.3 1.9.5 2.5-1.4 2.7-3.7 2.9-5.3 1.7-2.6 2.2-6.5 2.2-8.6.6.7 1.1 1.4 1.4 2.4.3-.7.3-1.8.3-1.8.5.6.8 1.2.9 2.2.4-.4.5-1.4.5-1.4.5.5.6 1.5.5 2.3.7-.8 1.2-1.6 1.7-2.5.5.5.5 1.3.3 2.5l1-.8c.3.5.3 1.4-.4 2.5l.9-.4c.2 1-.2 1.8-1 2.4l1-.3c0 .5-.3 1.1-.8 1.6l.7-.4M32 20.7H15.7v6l.2.2v-6h16.3v5.5l.2.2V20.7H32zm-8.1 20.9a12 12 0 0 1-8.2-11.3v-.2l.1-1.1-.1-.9-.1-.1v2.8c0 3.1 1.1 5.8 3.4 8 2 1.9 4.2 2.8 4.8 3h.2c.6-.2 2.9-1.1 4.8-3 2.3-2.2 3.4-4.9 3.4-8v-.5l-.2.2c-.1 1.4-.3 3.6-1.3 5.2-1 2.2-2.7 4.1-6.8 5.9m-13-37.3c0 .5.7.7 1.1.8-.6.4-.5 1.1-1.5 1.6 1.4.4 2.4-1.2 3.7-1.6-1.9-1.2-2.2-.3-3.3-.8m3.7 10.3c.5.2 1.2.4 2.2.2-.3-1 .5-2.4 1.8-2.2.1-.4-.2-.9-.7-1 .3-.3.4-.7.3-1.7-.3.7-1.8 1.2-1.6 2.5l-.4.4c-.7-2.3-.3-4.9-.6-6-.3-1-.8-1.4-1.6-1 .5.8.9 2.1.8 3-.6-.2-1.3-.2-1.5.3 1.4.1 1.7 3.8 2.4 4.3l-.3.3c-.8-.3-1.2-.5-1.9-1.1-1-.8-2.3-.3-2.8 0 .2.4 1 .8 2.3.8-.3.2-.7 1-.4 1.5.5-.7 1.4-.6 2-.3m6.4.7c.3 0 0 .5 0 .5-.6 0-2 1.1-1.1 2.9-.2.3-.8.5-1.4.2-.3.5-2.1 1.3-3.3.7 1-.4 1.1-1.6 2-2.6.7-.7 1.2-.7 1.4-1.1-1.2.4-2 .3-3.5-.6-1.3-.7-2.4-.4-2.4.5-.8-.2-1.2-.9-.8-1.9-.8-.1-2-.7-2.1-1.7.6 0 1.1-.7 2.5-.6 1.2.1 1.9 1.1 2.4 1.1-.5-.5-.6-3.9-2.4-3.2 0-.4.2-1.4 1.6-1.4a5 5 0 0 0-.5-2l-.2.2c-.8.8-2.5 1.6-4 .2.7 0 1.7-.5 1.8-1.1-.8-.5-1.1-1.4-.2-2.5 0 .8.1 1.1 1.9 1 .4 0 3.2.8 3.3 3l.2 4.5c.2-1.1 1.8-1.4 1.9-2.8.4.5.9 1.4.4 2.7.5.1 1 1.3.3 2.1-.1-.5-1.8-.5-1.6 1.2.6-.2 1.7-.6 2.6-1.1l.3.3c-.8.5-2.4 1.3-3.8 1.5.6.6 2.7.1 3.1-.1-.3 1-.7 1.4-1.6 1.9-.9.6-1.2 1.7-1.6 2.1.8.1 1.9-.5 2-1.1.2.3.7.3.8.3-.2-1.5.9-3 2-3.1m12.8-10c1.8-.1 2.1 1.9 4.1 1.3-.6-.2-1.1-1.3-2.3-1.4.9-.1 1-.4 1.6-1.1-.6.3-1.5.3-2 .3l-1.4.9m2.5 6.1c.4-.1 1.9-.5 2.3-1.5-.5.2-.8.2-1.7.2-1.3-.1-2.4.9-2.7 1.7h-.3l-.1-5.9c-1-.1-1 .6-1 .9l.2 5.3-.6.4a4.3 4.3 0 0 0-2.5-3.3c.1.6.2 1.4.7 2-.2.1-.6.5-.7 1.2.5-.2 2.4-.2 2.3 2.1l.5-.5c1.7-1.9 3.4-2.2 3.9-1.3.1-.1.3-.8-.3-1.3m-1.9-1.1c1.4-1.6 3.4-.3 4.9-1.1-.1 1.3-1 2.2-2.2 2.5.3.7-.1 1.7-.8 1.9.1-.9-1.4-1.1-2.5.1-1.2 1.3-2.4 2.3-3.8 2.4.3.5 1.6 1.1 2.3.8-.2.5-.8 1.2-1.6 1.4.1.9.1 1.2-.7 2.1-2.2-1-1-3.9-3.2-5.4v-.6c.8.3 1.8 1.8 2.1 3.2.2 1.4.5 1.8 1.1 2.2.4-.6.3-1.4.1-2 .3 0 .8-.1 1.2-.4-1.1-.3-2.3-1.1-2.4-2.1 1 .4 1.9.2 2.6-.2l.1-.7c-1.3.8-3.1.4-3.8-.5l.4-.4c1 1 2.5.9 3.4.3-.3-.8-1.4-.9-2-.5-.2-.3-.4-1.5.4-2.1-.4-.6-1-2.2-.5-3.2.7 1.2 2.1.9 2.8 2.9.1-1.4-.8-5.1.5-5.8a29 29 0 0 1 1.8-1c.4-.2 2.6-.3 3.6-1.1 0 0-.1 1.5-1.2 2.1.7 0 .8 1.4 2.5 1.2-3 2-3.4.2-4.8-.3l-.2-.1-.1 4.4m-8.2 7l-.3.1h-.4v-.7l.2-.3c0-.2-.1-.3-.3-.3-.2 0-.3.1-.3.3l.2.3v.6H25l-.3-.2c-.2 0-.3.1-.3.3 0 .2.1.3.3.3l.3-.2h.4v1l-.2.3c0 .2.1.3.3.3.2 0 .3-.1.3-.3l-.2-.3v-.9h.3l.3.2c.2 0 .3-.1.3-.3l-.3-.2m-2.9-.2l-.3.2h-.3v-.6l.2-.3c0-.2-.1-.3-.3-.3-.2 0-.3.1-.3.3l.2.3v.7h-.4l-.3-.1c-.2 0-.3.1-.3.3 0 .2.1.3.3.3l.3-.2h.3v.9l-.2.3c0 .2.1.3.3.3.2 0 .3-.1.3-.3l-.2-.3v-1h.4l.3.2c.2 0 .3-.1.3-.3 0-.3-.1-.4-.3-.4m.7 2.8c.5.9 1.4.9 2.2.4l.9-.4-.5-4.1c-1-.5-2.3-.6-2.6.6-.3-1.2-1.6-1.1-2.6-.6a211 211 0 0 0-.5 4.1c.3 0 .6.2.9.4.7.5 1.7.5 2.2-.4m3.7 0c.3.1.6.5.6 1.1h-8.6c0-.6.2-.9.6-1.1.2-1.3.7-5 .7-6.3h.6l-.1.8c.7-.2 1.6-.3 2.5-.3.9 0 1.8.1 2.5.3l-.1-.8h.6c0 1.3.5 5 .7 6.3m12.9 26.5c.1-1.1.3-1.7.5-2.3H6.8c.2.6.4 1.3.5 2.3h33.3zM18 39.3c-.5 1.9-3.3 3.7-5.4 4.3H16c.9-.5 2-1.2 2.6-2.1.3-.4.4-.6.2-1-.2-.5-.5-.8-.8-1.2m-2-.7c-.3.5.1 1.2.7 1.7.8-.8.9-1.5.7-1.8-.5-.5-1.1-.4-1.4.1m13.3 2.8c.6.9 1.7 1.6 2.6 2.1h3.3c-2.1-.6-4.9-2.4-5.4-4.3l-.7 1.1c-.2.5-.1.7.2 1.1m1.2-2.8c-.2.3-.1.9.7 1.8.6-.5 1-1.2.7-1.7-.3-.6-1-.7-1.4-.1m10.7 4.8c.6-.1.7.1.4 1.1l-.5 2.5H6.7c-.1-.7-.2-1.8-.5-2.5-.3-1-.2-1.2.4-1.1l1.4.2h.8a11 11 0 0 0 7.4-2.7c-2.4-2.4.4-4.4 2-2.4.5.6.9 1.1 1.2 1.7.3.5.1 1-.5 1.8-.3.4-1.1 1.1-1.8 1.5h13.8a7.1 7.1 0 0 1-1.8-1.5c-.6-.8-.8-1.3-.5-1.8.3-.6.7-1.1 1.2-1.7 1.5-2.1 4.4-.1 2 2.4 1.7 1.8 4.6 2.6 7.4 2.7h.8l1.2-.2m-29.9 2.1h.5l-.2-.7-.3.7m.5.1h-.6v.2l.1.1h-.4.1l.2-.2.5-1.2.1-.1.1.1.5 1.2.2.2h0-.4-.1l-.3-.3m1-.3c0 .3.1.4.2.5l.4.1.4-.1c.2-.1.2-.4.2-.6V45v-.4l.1-.1h.1-.2-.2.1l.1.1V45.2l-.1.5-.3.1-.2-.1c-.1-.1-.2-.2-.2-.5v-.3-.4l.1-.1h.1-.5.1l.1.1v.8zm2.3-.3v.8l.3.1.5-.1.2-.5-.2-.5c-.2-.2-.4-.2-.6-.2h-.1l-.1.4m-.2.4v-.3-.4l-.1-.1h-.1.6c.2 0 .6 0 .8.2l.2.5-.2.6c-.1-.1-.3.1-.7.1H14.8h.1l.1-.1-.1-.5m2.1.1h.5l-.2-.7-.3.7m.6.1H17v.2l.1.1h-.4.1l.2-.2.5-1.2.1-.1v.1l.5 1.2.2.2h0-.4-.1l-.2-.3m1.9-.9l.1-.2h.1-.2-.2.1v.1l-.3.4a.8.8 0 0 1-.2-.4v-.1h.1-.5.1l.2.1.3.6-.4.5-.2.1h-.1.4v-.1l.3-.5.3.5h.5l-.1-.1-.4-.7.1-.2zm2.7.8h.5l-.3-.7-.2.7m.5.1h-.6v.2l.1.1h-.4.1l.2-.2.5-1.2.1-.1.1.1.5 1.2.2.2h0-.4-.1l-.3-.3m1.2-.2v.4l-.1.1h-.1.5l-.1-.1V44.6h.2l.2.1v-.2h-1.2-.1v.1l.2-.1h.3v.9zm3.5-.2h.3l.1.1v-.1h-.1-.4v-.5h.3l.1.1v-.1-.1h-.1-.8.1l.1.1v1.1l-.1.1h-.1.4l-.1-.1V45.2zm1.2.2v.4l-.1.1h-.1H28.9l-.1-.1v-.7-.4l.1-.1h.1-.5.1l.1.1v.7zM30 45v.8l.3.1.5-.1.2-.5-.2-.5c-.2-.2-.4-.2-.6-.2h-.1v.4zm-.2.4v-.3-.4l-.1-.1h-.1.6c.2 0 .6 0 .8.2l.2.5-.2.6c-.1.1-.3.2-.7.2H29.7h.1l.1-.1-.1-.6m2.1 0v.4l-.1.1h-.1.8l.1-.1v-.2l-.1.1h-.2c-.2 0-.2 0-.2-.2V45h.3l.1.1V45h-.1-.3v-.5h.3l.1.1v-.1h-.1-.8.1l.1.1v.8zm1.8-.3v-.4l.1-.1h.1-.6.1l.1.1v1.1l-.1.1h-.1.8l.1-.1v-.2l-.1.1-.2.1h-.2v-.7zm1.2.3v.4l-.1.1h-.1.5l-.1-.1v-.7-.4l.1-.1h.1-.5.1l.1.1v.7zm1.4.6l.3-.1.2-.3c0-.2-.1-.3-.3-.5h-.1c-.2-.1-.2-.2-.2-.3l.2-.2.2.1.1.1v-.1-.2h-.3c-.3 0-.5.2-.5.4s.1.3.3.5l.1.1c.2.1.2.2.2.3l-.2.2-.3-.3v-.1.5l.3-.1M24 11.6c1 0 2.2.2 3.1.6l-.2-.5c-.5-.6-1.9-.8-2.9-.8s-2.4.2-2.9.8l-.2.5c.9-.4 2-.6 3.1-.6m1.7 1.4l1.2.4-.2-.8-1.4-.4.4.8zm-3-.1l1.2-.1-.3-.6-1.4.2.5.5zm-1.8.6l.3-.1-.5-.4-.1.1c-.3.2-.3.4-.3.5.1.1.2.2.4.1l.2-.2zM24 9.6l-.7.5h1.4l-.7-.5zm-.9-2h.6l-.1-1.1c-.9-.4-.8.5-.5 1.1m.7-2.3l-.5-.4.3 1 .3-.2.3.2.3-1-.5.4h-.2zm.8 4.2l-.3-1.1h-.6l-.3 1.1.5-.4.1-.1.1.1.5.4zm.2-1.9c.3-.7.4-1.5-.5-1.1l-.1 1.1h.6zm-3.1.3l1-.3-.2-.8-.8-.2.4.5.1.1-.1.1-.4.6zm3.7-1.1l-.2.8 1 .3-.4-.5-.1-.1.1-.1.4-.5-.8.1zm4.9-1.3c0 .6 0 2 .4 2.7-.5-.1-1.1-1-1.1-2-.9.8-1 3.7-2 5.3.2.3.3.7.2 1.1.5.3.5.8.3 1.1-.2.3-.6.6-1.1.4l-.2-.1c-.6-.2-1.6-.7-2.8-.7s-2.3.4-2.8.7l-.2.1c-.5.2-1 0-1.1-.4-.2-.3-.1-.8.3-1.1-.1-.4 0-.7.2-1.1-.6-.9-1.3-2.8-1.4-3.9a5 5 0 0 0-.5-1.6c-.1.5-.6 2-1.4 2.8.6-1.4.6-2.6.7-3.2.4-.4.9-.4 1.1-.4.2 0 .3.2.6.5 0-.7.3-1.6.2-2.9-.5-.2-1.9 1.8-2.8 1.5 1.3-.8 1.2-1.9 2.8-2.2.5 0 .9.3.9 1l1.1-1.5c.2-.8.8-1.3 1.8-1.6-.2.5-.5 1.5-1.3 1.9L21 3.6c.4 0 .7.1.9.3.3.3 0 1.4.2 2-.2-.2-.8-1-.7-1.6-1.2.9-1.6 3.8-.2 6.6a5 5 0 0 1 1.7-.6l.1-.2.5-1.6h-.2c-.3 0-.3-.2-.3-.3l-1.5.5-.7.2.4-.6.7-1-.7-.9-.4-.6.7.2 1.3.4c.1-.3.3-.4.6-.5L23 4.4l-.2-.6.2.3 1 .7.9-.7.5-.4-.2.6-.5 1.5c.3 0 .5.2.6.5l1.3-.4.7-.2-.3.6-.7.9.7 1 .4.6-.7-.2-1.5-.5c0 .1 0 .3-.3.3h-.2l.5 1.6.1.2c.6.1 1.2.3 1.6.6.5-.9 2.2-5.1.1-6.7-.2.4-.5.8-1.2 1.1.5-.6.5-1.5.7-1.7L27 3l-.9-1.1c-1.2-.6-.8-1-1.3-1.8.7.6 1.3.3 1.8 1.6a8 8 0 0 1 1.2 1.8c.2-.5.2-1.4.7-1.4h.6c.4.1.2 1.1 1.6 2.2-.4.1-1.2-.2-1.8-1.3-.1.6-.3 1.2 0 2.6.3-.3.6-.8.8-.8.1.1.7.4.6.7M16.8 29.1h-.7c-.1 1.1-.1 2.2.1 3.1.4-.7.8-1.3.8-1.8a2 2 0 0 0-.2-1.3m2.4 2c-.2-.4-.9-.2-.6.5l.8 1.9h.6l-.8-2.4m1.4-.6c-.1-.4-1.1-.4-.9.4l.6 2.6h.6l.6-2.6c.2-.9-.9-.8-.9-.4m1.9 1.1c.3-.7-.4-.9-.6-.5l-.7 2.3h.6l.7-1.8M19.2 34v.4a5.2 5.2 0 0 0 2.8 0V34l-1.4-.1c-.3-.1-1.2 0-1.4.1m2.5 2.6l-.1-.5.6-.2-.4-1.1-1.3.1-1.3-.1-.4 1.1.6.2-.1.5 1.1.1 1.3-.1m-4.6-7.5h6.6V41s-6-2.1-7.3-8.3l.2-.3c.4-.7.9-1.4.8-2l-.3-1.3m13.2 1.2V30h.3c.4 0 .6-.4.7-.8h-7.1v5.7c.5-.3.9-.6 1.5-.8v-1.3h.6c0-1.4.4-2.4 1-3l.2-.2.2.2c.6.7 1 1.7 1 3h.6V34.2a4 4 0 0 1 1.4 1.1c.5-1.1.9-2.3 1-3.7h-.1c-.6 0-1.2-.5-1.3-1.3m1.4-1.1h-.1c-.1.7-.4 1.1-1 1.1 0 .7.5 1 1 1h.1v-2.1m-2.9 7.4c.1-.4 0-.9-.2-1.1-.2-.3-.6-.4-1.1-.4l.5.6-.9.7-.3-.4.4-.3c-.3-.4-.7-.7-1.4-.5-.2.6 0 1.1.3 1.4l.3-.3.4.4-1.1.9.3.4 1-.9.3.4s-.2.3.1.7l.9-.8c-.3-.4-.7-.2-.7-.2l-.4-.4.9-.8.7.6zm-1.3-2.2c1.7 0 2.4.7 2.9 1.4-2.2 3.9-6.2 5.2-6.2 5.2v-5.5c.9-.6 1.6-1.1 3.3-1.1m-9.9-9.9v2.9c1.1 1 2.6.1 3.1-.2l-.3-.8c-1.4.1-1.9-.6-2.2-1.6l.5-.3c.5 1.6 1.4 1.4 2.1 1.3.5-.4 1.1-.6 1.7-.5l-1-2.2c.4-.2.8-.5 1.1-1-1.9.7-2.7.4-4.3 0l1 .9a5 5 0 0 1-1.7 1.5m5.3 2.3c.1-.2 0-.9-.3-1-.3-.1-1.3.2-1.4.4-.1.2.1.7.5.9.1.2 1 0 1.2-.3m2.6-1.2c-1.1.3-1.2 1.1-.1.8l1.3-.5.3.5c-.4.3-.9.8-1 1.2h3.8v-1.5c-1 .6-2.5.2-2.5-1.3v-.3c-.4.3-1 .4-1.3-.2.3-.1.6-.2.7-.4l.6.2c.4-.9 1.6-.8 1.9-.8.6.1.6.6-.1.5-.8-.1-1.2.3-1.2.9 0 .6.7 1.2 1.6.8.6-.3.7-1.4.7-1.8 0-.4-.2-1.5-1.3-1.5-.9 0-1.9.3-1.9 1.1-.7.2-2.1 1.2-2.3 1.9h.7v.4zm-9.1.6l-.2-.1v-4.8h15.5v4.3c-.5 0-.9.3-1.2.8l-.3.5.6-.1.3.1c.2.2.3.7.3 1.4v.4H17c-.1-.3-.2-.6-.1-.7.1-1.2-.1-1.4-.5-1.8m-.2.2v2.3h.5c-.1-.3-.2-.6-.1-.8.1-1.1-.1-1.2-.4-1.5m15.5 2.3v-2.9c-.3 0-.7.2-.9.7h.1c.6 0 .9.9.8 1.8v.4zM20 24.8h.9l-.1-.5c.1-.4-.2-.5-.4-.5h-1c.3.3.2.8.6 1m-3.4 3.1c.1-1.2-.1-1.3-.4-1.6-.3-.2-.8-.3-1.3-.7-.4-.2-.4-.6-.9-1.1.1-1 .8-2.2 1.3-2.5l.1-1.6h.3c-.5-.3-1-.1-1.5.4L12.3 22c-.9-.7-2.2-1.4-3.2-2.3 0 0 1.3 0 1.9-.3.2-.1.6-.8.4-1.4l-.8-.4-.9-.5c-.6-.4-.8-.8-1.8-1 .1-.4.2-.3.6-.6l1.1-1.2c.2-.3 0-1-.5-.2-.2.3-.6.7-1.1.9l.1-.6c1.4-1 1.3-1.9 1.2-2.7-.1-.5-.5-.7-.5-.2 0 .3.3 1.3-.7 1.8l-.2-.8c.9-1.1.5-2.2.1-2.7 0-.4-.6-.5-.4 0 .2.4.6 1.5-.1 2-.2-.3-.5-.4-.6-.8a5 5 0 0 0-.2-2.4c0-.4-.4-.6-.4 0 0 .7.1 1.6 0 1.6-.1.1-1-.8-1.4-1.1-.3-.2-.7-.1-.3.4.4.4 1.6 1.3 1.4 1.6-.1.2-.9-.5-1.4-.7-.4-.2-.6.1-.2.4.6.5 1 .8 2 1.1 1 .3 1.5 1.7 1.2 3.6h-.3c0-.7-.2-1.6-.4-2-.2-.5-.7-.5-.5.2.1.5.2 1.1.1 1.9-.8-.1-1.1-.4-1.5-.6l.2-1.5c0-.5-.3-.9-.5-.2l-.4 1.4-.6-.3-.1-1.3c-.1-.6-.3-.6-.5-.1l-.2 1c-.3-.2-.5-.5-.5-.8l.2-1.7c.1-.3-.1-.9-.4-.2l-.3 1.3c-.2 0-.5-1.2-.6-2-.1-.4-.4-.7-.4 0a4 4 0 0 0 .3 2.1c-.4 0-.8-.8-1.1-1.2-.3-.4-.4 0-.4.2a2.7 2.7 0 0 0 2 2.2c.8 1.2 2.5 1.7 3.8 2.3-1.8 0-2.3.7-3.1.2 0 .7.4 1 .7 1.1l.6.2c.1.8.9.8 1.6.8-.2 1.6 0 3.7 1.4 5.3.3 1 .3 2 .3 2.7A13.8 13.8 0 0 0 4.4 31c-.3.9-.8 1.6-1.5 2 .6.6 1.4.3 1.9 0l.2 1.2c-.3.5-.6.8-.5 1.4l-.8.7c-.1.2 0 .9.2 1.2.5 1 .1 3.3 0 4 .2 0 .5 0 .6-.3.1.1.4.3.5.8 0 .2-.1.9.2 1 .3.1 1.6 0 1.8-.2l-.5-.8-.1-1c-.1-.3-.5-.9-.8-1.1-.1-.4-.1-2.3.1-3 .3-.2 2.6-1.9 3.1-3.5.4.1.3 1.3.3 2.7 0 .4.5.6.8.6.6.1 1.5.7 2.5 2.1l.4-.4.4.9c.1.2.9.3 1.5.1l.4-.3c-.8-1.3-1.2-2.2-2.2-3l-1.6-.8c.3-.6 1.3-3.6.7-4.7-.2-.4-.9-.7-1.8-.6.7-.9 2.2-2.6 2.4-3.1.2.2 1 .1 1.7.3.2.1.9.9.9 1.2.1.5.1 1.2-.3 2.6.3 0 .2-.1.5-.2 0 .4-.1.7-.4 1.3.1.5.3 1.3.6 1.5.3-1 1.5-2.4 1.5-3.2 0-1.1-.5-2-.5-2.5m45.6-12.1c.2.7.3 1.6.3 2.9 0 3.1-.7 4.4-2.4 4.4-.6 0-1.1-.1-1.5-.4-.7-.5-1.1-1.9-1.1-4 0-1.5.2-2.6.6-3.4.4-.7 1.1-1.1 1.9-1.1 1.4 0 2 1 2.2 1.6M66 26.9l.7-1.6-1.1.1c-.5 0-1.1-.2-1.5-.5a6 6 0 0 0-1.1-.6c1.5-1 2.4-3 2.4-5.6 0-3.9-2-6.3-5.3-6.3-.9 0-1.8.2-2.6.6-1.8 1-2.8 3.1-2.8 5.8 0 1.8.5 3.4 1.4 4.6.9 1.2 2.1 1.7 4 1.7 1 .3 1.9.9 2.5 1.2.5.3 1.3.9 2.3.9.8-.1 1.1-.3 1.1-.3m7.2-1.9l1.7-1c-.4-.4-.5-1-.5-1.6v-6.9l-2.3.5v6.4a2 2 0 0 1-1.5.9c-.4 0-.7-.2-.8-.4a4 4 0 0 1-.2-1.5v-5.8l-2.3.4v5.8l.2 1.8c.3.9 1.4 1.5 2.7 1.5 1 0 1.8-.3 2.4-.9 0 .3.3.6.6.8m8.4-5.8v.1h-2.7c0-1.3.5-2 1.4-2 .5 0 .8.2 1 .5.2.3.3.7.3 1.4M78.8 21H84v-.5c0-1.9-.4-3.1-1.2-4-.6-.6-1.6-1-2.6-1-1.2 0-2.1.4-2.9 1.2-.8.9-1.1 2-1.1 3.6 0 2.9 1.7 4.7 4.3 4.7 1.3 0 2.4-.4 3.4-1.3l-.9-1.3c-.7.6-1.5.9-2.3.9-1.2 0-1.9-.8-1.9-2.3zm11.8-1.8v.1h-2.7c0-1.3.5-2 1.4-2 .5 0 .8.2 1 .5.2.3.3.7.3 1.4M87.8 21H93v-.5c0-1.9-.4-3.1-1.2-4-.6-.6-1.6-1-2.6-1-1.2 0-2.1.4-2.9 1.2-.8.9-1.1 2-1.1 3.6 0 2.9 1.7 4.7 4.3 4.7 1.3 0 2.4-.4 3.4-1.3l-.9-1.3c-.7.6-1.5.9-2.3.9-1.2 0-1.9-.8-1.9-2.3zm11.7 3.8h2.3v-6.6l-.2-1.3c-.3-.8-1.2-1.3-2.2-1.3a3 3 0 0 0-1.6.4l-1 .7a2 2 0 0 0-.3-1.1l-2.1.6c.2.6.3 1.3.3 2.1v6.6h2.4v-6.4c.5-.5 1.2-.8 1.6-.8.6 0 .8.3.8 1.3v5.8zm7.5.3c2.3 0 3.9-1.3 3.9-3.2 0-.6-.2-1.1-.5-1.5-.3-.4-.7-.7-1.8-1l-1.1-.3c-.8-.2-1.1-.5-1.1-.9 0-.5.5-.9 1.2-.9s1.3.2 2.2.7l.8-1.6c-.8-.4-1.8-.9-3.2-.9-2.1 0-3.5 1.2-3.5 3 0 .6.2 1.2.5 1.6s1.1.8 1.7.9l1.1.2c1 .2 1.4.5 1.4 1.1 0 .6-.5 1-1.2 1-1 0-2.3-.6-3-1l-.8 1.7c1.1.7 2.3 1.1 3.4 1.1m7.9-.1l1.4-.2-.4-1.4h-.3a.8.8 0 0 1-.5-.2c-.1-.2-.2-.5-.2-2V14l-.1-2.4-2.4.5.1 2.7v6.8c0 1.3 0 1.6.2 2 .4.9 1.2 1.4 2.2 1.4m6.7-4.2h.1v1.9c-.4.4-.8.6-1.2.6-.6 0-1-.5-1-1.2-.1-1 .4-1.3 2.1-1.3m2 4.5l1.3-1.5c-.8-.6-.9-1-.9-2l.1-3c0-1 0-1.3-.2-1.6-.4-1-1.4-1.6-2.9-1.6a8 8 0 0 0-2.5.5l-1.5.7 1 1.7c1-.7 1.9-1 2.6-1 .9 0 1.1.3 1.1 1.3v.4h-.5c-2.9 0-4.4 1-4.4 3.1 0 1.8 1.1 2.8 3.1 2.8.7 0 1.4-.2 1.8-.5l.5-.5c.3.5.8.9 1.4 1.2m7.7-.5h2.3v-6.6l-.2-1.3c-.3-.8-1.2-1.3-2.2-1.3a3 3 0 0 0-1.6.4l-1 .7a2 2 0 0 0-.3-1.1l-2.1.6c.2.6.3 1.3.3 2.1v6.6h2.4v-6.4c.5-.5 1.2-.8 1.6-.8.6 0 .8.3.8 1.3v5.8zm9.8-6.7v4.3c-.2.3-.7.6-1.2.6-1.2 0-1.6-.6-1.6-2.6s.5-2.9 1.5-2.9c.4 0 .8.2 1.3.6m.5 6.7h2.1c-.2-.4-.3-1.1-.3-3.3v-9.4l-2.4-.4v3.1l.1 1.3c-.4-.4-1-.5-1.6-.5-2.3 0-3.9 1.9-3.9 4.8 0 2.8 1.5 4.6 3.8 4.6.8 0 1.5-.2 2.1-.8l.1.6M60.3 42.1c1.2 0 2.5-.4 3.4-.9v-5.7h-4.1l.3 1.2h2.4v3.7c-.5.3-1.2.5-1.9.5-1.2 0-2.4-.5-2.9-1.3s-.8-2.1-.8-3.7c0-1.2.2-2.2.5-3.1a3 3 0 0 1 3-2.1c.9 0 1.6.3 2.6.9l.7-.9c-.9-.8-2-1.2-3.3-1.2-1.3 0-2.3.4-3.2 1.2-1.3 1.1-1.9 2.8-1.9 5.1 0 2.1.5 3.6 1.5 4.7a4.6 4.6 0 0 0 3.7 1.6m11.5-7c.3.6.4 1.4.4 2.7 0 .9-.1 1.4-.3 1.9-.3.9-1 1.3-1.9 1.3-.8 0-1.5-.4-1.8-.9-.3-.5-.5-1.6-.5-2.9 0-1 .1-1.8.4-2.3.3-.6 1-1 1.8-1 .7.1 1.5.4 1.9 1.2M70 42.2c2.2 0 3.8-1.6 3.8-4.5 0-1.4-.3-2.5-.8-3.3a3.4 3.4 0 0 0-3-1.5c-2.3 0-3.8 1.8-3.8 4.6-.1 2.9 1.3 4.7 3.8 4.7m9.2-.2l3.3-8.9H81L79 39a8 8 0 0 0-.4 1.5l-.4-1.5-2.1-6.1-1.4.3 3.2 8.8h1.3zm9.7-7.3c.3.4.4 1 .4 2h-4c.1-1.8.8-2.7 2-2.7a2 2 0 0 1 1.6.7m-3.6 3.1h5.5v-.2c0-2.1-.2-2.9-1-3.7-.6-.6-1.4-1-2.4-1-1.1 0-1.9.4-2.6 1.2-.8.9-1.1 1.9-1.1 3.3 0 2.9 1.5 4.7 3.9 4.7 1.1 0 2.2-.4 3-1.1l-.5-.9c-.6.6-1.3.8-2.2.8-.9 0-1.7-.3-2.2-1.1-.3-.5-.4-1.1-.4-1.9v-.1zM97 34.4l.6-1.5-.5-.1c-.9 0-1.8.6-2.5 1.5.1-.7-.3-1.4-.3-1.4l-1.3.4s.3.6.3 1.9V42h1.4v-5.5c0-.7.1-1 .5-1.4a2 2 0 0 1 1.5-.6l.3-.1m7 7.5h1.4v-6.7l-.2-1a2.4 2.4 0 0 0-2.2-1.3c-.9 0-1.9.4-2.8 1.4 0-.7-.3-1.4-.3-1.4l-1.3.4s.3.6.3 1.9V42h1.3v-6.6c.6-.7 1.7-1.2 2.4-1.2.4 0 .8.1 1 .4.2.3.3.5.3 1.5v5.8zm13.7 0h1.4v-6.7c0-1.4-.9-2.4-2.2-2.4-.9 0-2 .6-2.8 1.5a2.3 2.3 0 0 0-2.1-1.5c-.9 0-2 .7-2.6 1.3 0-.6-.3-1.3-.3-1.3l-1.3.3s.3.6.3 1.9v6.8h1.3v-6.6c.9-.8 1.6-1.2 2.2-1.2.4 0 .7.1.9.4.2.2.2.6.2 1.1v6.3h1.4v-6.4c.9-.8 1.5-1.4 2.3-1.4.7 0 1.1.4 1.1 1.3v6.6zm8.9-7.2c.3.4.4 1 .4 2h-4c.1-1.8.8-2.7 2-2.7.6 0 1.3.3 1.6.7m-3.7 3.1h5.5v-.2c0-2.1-.2-2.9-1-3.7-.6-.6-1.4-1-2.4-1-1.1 0-1.9.4-2.6 1.2-.7.9-1.1 1.8-1.1 3.3 0 2.9 1.5 4.7 3.9 4.7 1.1 0 2.2-.4 3-1.1l-.5-.9c-.6.6-1.3.8-2.2.8-.9 0-1.7-.3-2.2-1.1-.3-.5-.4-1.1-.4-1.9v-.1zm13.1 4.1h1.4v-6.7l-.2-1a2.4 2.4 0 0 0-2.2-1.3c-.9 0-1.9.4-2.8 1.4 0-.7-.3-1.4-.3-1.4l-1.3.4s.3.6.3 1.9V42h1.3v-6.6c.6-.7 1.7-1.2 2.4-1.2.4 0 .8.1 1 .4.2.3.3.5.3 1.5v5.8zm7.3-7.7l.4-1h-2.2l.2-2.5-1.5.3-.1 2.2H139v1h1.2v6.1c0 .9.2 1.5.8 1.8.3.2.7.2 1.2.2a3 3 0 0 0 1.6-.4l-.2-.9a2 2 0 0 1-.9.2c-.9 0-1.1-.3-1.1-1.3v-5.7h1.7z" fill="#fff"/>
</svg>
